<svg width="170" height="57" viewBox="0 0 170 57" fill="none" xmlns="http://www.w3.org/2000/svg">
<path d="M148 25.4808C145.226 23.627 140 22.4808 140 22.4808C140 22.4808 145.072 23.1402 148 24.4808C149.431 25.1362 150.162 25.6506 151.5 26.4808C152.696 27.2234 154.108 27.9808 154.5 28.4808C154.892 28.9808 154 29.4808 153.5 29.4808H149C149 29.4808 150.507 28.4571 150.5 27.4808C150.491 26.2306 149.04 26.1755 148 25.4808Z" fill="#86B4E0"/>
<path d="M27.5 14.4808C24.4183 12.7795 19 11.4808 19 11.4808C19 11.4808 23.5 11.4808 26.5 12.4808C29.5 13.4808 33 15.4808 33 15.4808C33 15.4808 41.7399 11.8515 47.5 9.98081C54.9772 7.55253 59.2518 6.3111 67 4.98081C71.8457 4.14885 79.5 3.48081 79.5 3.48081C79.5 3.48081 88.4417 2.39899 94 3.48081C97.2129 4.10614 98.93 4.84545 102 5.98081C109.208 8.64647 119.5 14.9808 119.5 14.9808C119.5 14.9808 131.532 16.0841 139 17.9808C145.404 19.6074 151 20.9808 155 23.4808C159 25.9808 162.5 30.4808 163 32.9808C163.5 35.4808 161.5 38.4808 161.5 38.4808C161.5 38.4808 164 31.9808 152.5 24.9808C141 17.9808 118.5 16.9808 118.5 16.9808C118.5 16.9808 107.096 10.8166 99.5 7.48081C98.1385 6.88284 97.4113 6.44954 96 5.98081C94.2915 5.41336 91.5 4.98081 91.5 4.98081C91.5 4.98081 87.5459 4.48081 85 4.48081C82.4541 4.48081 78.5 4.98081 78.5 4.98081L69.5 6.48081L50.5 11.4808L33 18.4808C33 18.4808 29.8251 15.7644 27.5 14.4808Z" fill="#86B4E0"/>
<path d="M54 14.9808C53.5 15.4808 53.5 15.9808 53.5 15.9808C53.5 15.9808 52.3619 15.1712 52.5 14.4808C52.6083 13.9393 53.5 13.4808 53.5 13.4808C53.5 13.4808 57.7546 12.2195 60.5 11.4808C65.3477 10.1765 68.0426 9.27224 73 8.48083C77.0675 7.83148 79.3851 7.6661 83.5 7.48083C87.2062 7.31396 90.5 6.98083 93 7.48083C95.5 7.98083 96.5 8.48083 98 9.48083C99.5 10.4808 111 17.9808 111 17.9808H94L104.5 15.9808C104.5 15.9808 98.8462 11.3415 94.5 9.98083C90.7545 8.80821 88.4247 8.98083 84.5 8.98083C80.5753 8.98083 74.5 9.98083 74.5 9.98083L77.5 16.9808L72 10.4808C72 10.4808 63.8983 11.3275 59 12.9808C57.0074 13.6534 54 14.9808 54 14.9808Z" fill="#86B4E0"/>
<path d="M25.5 19.9808C22 20.9807 21.5 22.4808 21.5 22.4808C21.5 22.4808 22.2114 18.8985 24 17.9808C25.7459 17.0849 27 17.4807 29 18.4808C31 19.4808 34.5 20.4808 34.5 20.4808C34.5 20.4808 29 18.9808 25.5 19.9808Z" fill="#86B4E0"/>
<path d="M55 19.4808C49.134 19.2412 40 20.4808 40 20.4808C40 20.4808 48.7838 18.493 54.5 18.4808C58.619 18.472 60.9656 18.6499 65 19.4808C70.9318 20.7026 79.5 24.9808 79.5 24.9808C79.5 24.9808 64.7978 19.8811 55 19.4808Z" fill="#86B4E0"/>
<path d="M121.5 22.4808C111.217 21.1796 95 20.9808 95 20.9808C95 20.9808 111.211 19.8672 121.5 20.9808C125.426 21.4058 127.675 21.5005 131.5 22.4808C135.33 23.4624 141 25.9808 141 25.9808C141 25.9808 129.176 23.4521 121.5 22.4808Z" fill="#86B4E0"/>
<path d="M8.36719 49.3633H3.74414L2.86523 52H0.0615234L4.8252 39.2031H7.26855L12.0586 52H9.25488L8.36719 49.3633ZM4.45605 47.2275H7.65527L6.04688 42.4375L4.45605 47.2275ZM17.042 50.1279C17.5107 50.1279 17.8916 49.999 18.1846 49.7412C18.4775 49.4834 18.6299 49.1406 18.6416 48.7129H21.0234C21.0176 49.3574 20.8418 49.9492 20.4961 50.4883C20.1504 51.0215 19.6758 51.4375 19.0723 51.7363C18.4746 52.0293 17.8125 52.1758 17.0859 52.1758C15.7266 52.1758 14.6543 51.7451 13.8691 50.8838C13.084 50.0166 12.6914 48.8213 12.6914 47.2979V47.1309C12.6914 45.666 13.0811 44.4971 13.8604 43.624C14.6396 42.751 15.709 42.3145 17.0684 42.3145C18.2578 42.3145 19.21 42.6543 19.9248 43.334C20.6455 44.0078 21.0117 44.9072 21.0234 46.0322H18.6416C18.6299 45.54 18.4775 45.1416 18.1846 44.8369C17.8916 44.5264 17.5049 44.3711 17.0244 44.3711C16.4326 44.3711 15.9844 44.5879 15.6797 45.0215C15.3809 45.4492 15.2314 46.1465 15.2314 47.1133V47.377C15.2314 48.3555 15.3809 49.0586 15.6797 49.4863C15.9785 49.9141 16.4326 50.1279 17.042 50.1279ZM26.4287 50.1279C26.8975 50.1279 27.2783 49.999 27.5713 49.7412C27.8643 49.4834 28.0166 49.1406 28.0283 48.7129H30.4102C30.4043 49.3574 30.2285 49.9492 29.8828 50.4883C29.5371 51.0215 29.0625 51.4375 28.459 51.7363C27.8613 52.0293 27.1992 52.1758 26.4727 52.1758C25.1133 52.1758 24.041 51.7451 23.2559 50.8838C22.4707 50.0166 22.0781 48.8213 22.0781 47.2979V47.1309C22.0781 45.666 22.4678 44.4971 23.2471 43.624C24.0264 42.751 25.0957 42.3145 26.4551 42.3145C27.6445 42.3145 28.5967 42.6543 29.3115 43.334C30.0322 44.0078 30.3984 44.9072 30.4102 46.0322H28.0283C28.0166 45.54 27.8643 45.1416 27.5713 44.8369C27.2783 44.5264 26.8916 44.3711 26.4111 44.3711C25.8193 44.3711 25.3711 44.5879 25.0664 45.0215C24.7676 45.4492 24.6182 46.1465 24.6182 47.1133V47.377C24.6182 48.3555 24.7676 49.0586 25.0664 49.4863C25.3652 49.9141 25.8193 50.1279 26.4287 50.1279ZM34.541 52H31.9922V42.4902H34.541V52ZM31.8428 40.0293C31.8428 39.6484 31.9688 39.335 32.2207 39.0889C32.4785 38.8428 32.8271 38.7197 33.2666 38.7197C33.7002 38.7197 34.0459 38.8428 34.3037 39.0889C34.5615 39.335 34.6904 39.6484 34.6904 40.0293C34.6904 40.416 34.5586 40.7324 34.2949 40.9785C34.0371 41.2246 33.6943 41.3477 33.2666 41.3477C32.8389 41.3477 32.4932 41.2246 32.2295 40.9785C31.9717 40.7324 31.8428 40.416 31.8428 40.0293ZM36.2461 47.1748C36.2461 45.6924 36.5771 44.5117 37.2393 43.6328C37.9072 42.7539 38.8184 42.3145 39.9727 42.3145C40.8984 42.3145 41.6631 42.6602 42.2666 43.3516V38.5H44.8154V52H42.5215L42.3984 50.9893C41.7656 51.7803 40.9512 52.1758 39.9551 52.1758C38.8359 52.1758 37.9365 51.7363 37.2568 50.8574C36.583 49.9727 36.2461 48.7451 36.2461 47.1748ZM38.7861 47.3594C38.7861 48.25 38.9414 48.9326 39.252 49.4072C39.5625 49.8818 40.0137 50.1191 40.6055 50.1191C41.3906 50.1191 41.9443 49.7881 42.2666 49.126V45.373C41.9502 44.7109 41.4023 44.3799 40.623 44.3799C39.3984 44.3799 38.7861 45.373 38.7861 47.3594ZM51.1611 52.1758C49.7666 52.1758 48.6299 51.748 47.751 50.8926C46.8779 50.0371 46.4414 48.8975 46.4414 47.4736V47.2275C46.4414 46.2725 46.626 45.4199 46.9951 44.6699C47.3643 43.9141 47.8857 43.334 48.5596 42.9297C49.2393 42.5195 50.0127 42.3145 50.8799 42.3145C52.1807 42.3145 53.2031 42.7246 53.9473 43.5449C54.6973 44.3652 55.0723 45.5283 55.0723 47.0342V48.0713H49.0166C49.0986 48.6924 49.3447 49.1904 49.7549 49.5654C50.1709 49.9404 50.6953 50.1279 51.3281 50.1279C52.3066 50.1279 53.0713 49.7734 53.6221 49.0645L54.8701 50.4619C54.4893 51.001 53.9736 51.4229 53.3232 51.7275C52.6729 52.0264 51.9521 52.1758 51.1611 52.1758ZM50.8711 44.3711C50.3672 44.3711 49.957 44.541 49.6406 44.8809C49.3301 45.2207 49.1309 45.707 49.043 46.3398H52.5762V46.1377C52.5645 45.5752 52.4121 45.1416 52.1191 44.8369C51.8262 44.5264 51.4102 44.3711 50.8711 44.3711ZM58.8604 42.4902L58.9395 43.5889C59.6191 42.7393 60.5303 42.3145 61.6729 42.3145C62.6807 42.3145 63.4307 42.6104 63.9229 43.2021C64.415 43.7939 64.667 44.6787 64.6787 45.8564V52H62.1387V45.918C62.1387 45.3789 62.0215 44.9893 61.7871 44.749C61.5527 44.5029 61.1631 44.3799 60.6182 44.3799C59.9033 44.3799 59.3672 44.6846 59.0098 45.2939V52H56.4697V42.4902H58.8604ZM69.6533 40.1523V42.4902H71.2793V44.3535H69.6533V49.0996C69.6533 49.4512 69.7207 49.7031 69.8555 49.8555C69.9902 50.0078 70.248 50.084 70.6289 50.084C70.9102 50.084 71.1592 50.0635 71.376 50.0225V51.9473C70.8779 52.0996 70.3652 52.1758 69.8379 52.1758C68.0566 52.1758 67.1484 51.2764 67.1133 49.4775V44.3535H65.7246V42.4902H67.1133V40.1523H69.6533ZM82.0811 47.3154H79.9805V52H77.3438V39.2031H82.0986C83.6104 39.2031 84.7764 39.54 85.5967 40.2139C86.417 40.8877 86.8271 41.8398 86.8271 43.0703C86.8271 43.9434 86.6367 44.6729 86.2559 45.2588C85.8809 45.8389 85.3096 46.3018 84.542 46.6475L87.3105 51.877V52H84.4805L82.0811 47.3154ZM79.9805 45.1797H82.1074C82.7695 45.1797 83.2822 45.0127 83.6455 44.6787C84.0088 44.3389 84.1904 43.873 84.1904 43.2812C84.1904 42.6777 84.0176 42.2031 83.6719 41.8574C83.332 41.5117 82.8076 41.3389 82.0986 41.3389H79.9805V45.1797ZM93.0498 52.1758C91.6553 52.1758 90.5186 51.748 89.6396 50.8926C88.7666 50.0371 88.3301 48.8975 88.3301 47.4736V47.2275C88.3301 46.2725 88.5146 45.4199 88.8838 44.6699C89.2529 43.9141 89.7744 43.334 90.4482 42.9297C91.1279 42.5195 91.9014 42.3145 92.7686 42.3145C94.0693 42.3145 95.0918 42.7246 95.8359 43.5449C96.5859 44.3652 96.9609 45.5283 96.9609 47.0342V48.0713H90.9053C90.9873 48.6924 91.2334 49.1904 91.6436 49.5654C92.0596 49.9404 92.584 50.1279 93.2168 50.1279C94.1953 50.1279 94.96 49.7734 95.5107 49.0645L96.7588 50.4619C96.3779 51.001 95.8623 51.4229 95.2119 51.7275C94.5615 52.0264 93.8408 52.1758 93.0498 52.1758ZM92.7598 44.3711C92.2559 44.3711 91.8457 44.541 91.5293 44.8809C91.2188 45.2207 91.0195 45.707 90.9316 46.3398H94.4648V46.1377C94.4531 45.5752 94.3008 45.1416 94.0078 44.8369C93.7148 44.5264 93.2988 44.3711 92.7598 44.3711ZM100.749 42.4902L100.828 43.5889C101.508 42.7393 102.419 42.3145 103.562 42.3145C104.569 42.3145 105.319 42.6104 105.812 43.2021C106.304 43.7939 106.556 44.6787 106.567 45.8564V52H104.027V45.918C104.027 45.3789 103.91 44.9893 103.676 44.749C103.441 44.5029 103.052 44.3799 102.507 44.3799C101.792 44.3799 101.256 44.6846 100.898 45.2939V52H98.3584V42.4902H100.749ZM111.542 40.1523V42.4902H113.168V44.3535H111.542V49.0996C111.542 49.4512 111.609 49.7031 111.744 49.8555C111.879 50.0078 112.137 50.084 112.518 50.084C112.799 50.084 113.048 50.0635 113.265 50.0225V51.9473C112.767 52.0996 112.254 52.1758 111.727 52.1758C109.945 52.1758 109.037 51.2764 109.002 49.4775V44.3535H107.613V42.4902H109.002V40.1523H111.542ZM120.094 52C119.977 51.7715 119.892 51.4873 119.839 51.1475C119.224 51.833 118.424 52.1758 117.439 52.1758C116.508 52.1758 115.734 51.9062 115.119 51.3672C114.51 50.8281 114.205 50.1484 114.205 49.3281C114.205 48.3203 114.577 47.5469 115.321 47.0078C116.071 46.4688 117.152 46.1963 118.564 46.1904H119.733V45.6455C119.733 45.2061 119.619 44.8545 119.391 44.5908C119.168 44.3271 118.813 44.1953 118.327 44.1953C117.899 44.1953 117.562 44.2979 117.316 44.5029C117.076 44.708 116.956 44.9893 116.956 45.3467H114.416C114.416 44.7959 114.586 44.2861 114.926 43.8174C115.266 43.3486 115.746 42.9824 116.367 42.7188C116.988 42.4492 117.686 42.3145 118.459 42.3145C119.631 42.3145 120.56 42.6104 121.245 43.2021C121.937 43.7881 122.282 44.6143 122.282 45.6807V49.8027C122.288 50.7051 122.414 51.3877 122.66 51.8506V52H120.094ZM117.993 50.2334C118.368 50.2334 118.714 50.1514 119.03 49.9873C119.347 49.8174 119.581 49.5918 119.733 49.3105V47.6758H118.784C117.513 47.6758 116.836 48.1152 116.754 48.9941L116.745 49.1436C116.745 49.46 116.856 49.7207 117.079 49.9258C117.302 50.1309 117.606 50.2334 117.993 50.2334ZM126.914 52H124.365V38.5H126.914V52ZM143.71 47.7373C143.61 49.1143 143.101 50.1982 142.181 50.9893C141.267 51.7803 140.06 52.1758 138.56 52.1758C136.919 52.1758 135.627 51.625 134.684 50.5234C133.746 49.416 133.277 47.8984 133.277 45.9707V45.1885C133.277 43.958 133.494 42.874 133.928 41.9365C134.361 40.999 134.979 40.2812 135.782 39.7832C136.591 39.2793 137.528 39.0273 138.595 39.0273C140.071 39.0273 141.261 39.4229 142.163 40.2139C143.065 41.0049 143.587 42.1152 143.728 43.5449H141.091C141.026 42.7188 140.795 42.1211 140.396 41.752C140.004 41.377 139.403 41.1895 138.595 41.1895C137.716 41.1895 137.057 41.5059 136.617 42.1387C136.184 42.7656 135.961 43.7412 135.949 45.0654V46.0322C135.949 47.415 136.157 48.4258 136.573 49.0645C136.995 49.7031 137.657 50.0225 138.56 50.0225C139.374 50.0225 139.98 49.8379 140.379 49.4688C140.783 49.0938 141.015 48.5166 141.073 47.7373H143.71ZM150.785 52C150.668 51.7715 150.583 51.4873 150.53 51.1475C149.915 51.833 149.115 52.1758 148.131 52.1758C147.199 52.1758 146.426 51.9062 145.811 51.3672C145.201 50.8281 144.896 50.1484 144.896 49.3281C144.896 48.3203 145.269 47.5469 146.013 47.0078C146.763 46.4688 147.844 46.1963 149.256 46.1904H150.425V45.6455C150.425 45.2061 150.311 44.8545 150.082 44.5908C149.859 44.3271 149.505 44.1953 149.019 44.1953C148.591 44.1953 148.254 44.2979 148.008 44.5029C147.768 44.708 147.647 44.9893 147.647 45.3467H145.107C145.107 44.7959 145.277 44.2861 145.617 43.8174C145.957 43.3486 146.438 42.9824 147.059 42.7188C147.68 42.4492 148.377 42.3145 149.15 42.3145C150.322 42.3145 151.251 42.6104 151.937 43.2021C152.628 43.7881 152.974 44.6143 152.974 45.6807V49.8027C152.979 50.7051 153.105 51.3877 153.352 51.8506V52H150.785ZM148.685 50.2334C149.06 50.2334 149.405 50.1514 149.722 49.9873C150.038 49.8174 150.272 49.5918 150.425 49.3105V47.6758H149.476C148.204 47.6758 147.527 48.1152 147.445 48.9941L147.437 49.1436C147.437 49.46 147.548 49.7207 147.771 49.9258C147.993 50.1309 148.298 50.2334 148.685 50.2334ZM160.269 44.8721C159.923 44.8252 159.618 44.8018 159.354 44.8018C158.394 44.8018 157.764 45.127 157.465 45.7773V52H154.925V42.4902H157.324L157.395 43.624C157.904 42.751 158.61 42.3145 159.513 42.3145C159.794 42.3145 160.058 42.3525 160.304 42.4287L160.269 44.8721ZM166.649 49.3721C166.649 49.0615 166.494 48.8184 166.184 48.6426C165.879 48.4609 165.387 48.2998 164.707 48.1592C162.445 47.6846 161.314 46.7236 161.314 45.2764C161.314 44.4326 161.663 43.7295 162.36 43.167C163.063 42.5986 163.98 42.3145 165.111 42.3145C166.318 42.3145 167.282 42.5986 168.003 43.167C168.729 43.7354 169.093 44.4736 169.093 45.3818H166.553C166.553 45.0186 166.436 44.7197 166.201 44.4854C165.967 44.2451 165.601 44.125 165.103 44.125C164.675 44.125 164.344 44.2217 164.109 44.415C163.875 44.6084 163.758 44.8545 163.758 45.1533C163.758 45.4346 163.89 45.6631 164.153 45.8389C164.423 46.0088 164.874 46.1582 165.507 46.2871C166.14 46.4102 166.673 46.5508 167.106 46.709C168.448 47.2012 169.119 48.0537 169.119 49.2666C169.119 50.1338 168.747 50.8369 168.003 51.376C167.259 51.9092 166.298 52.1758 165.12 52.1758C164.323 52.1758 163.614 52.0352 162.993 51.7539C162.378 51.4668 161.895 51.0771 161.543 50.585C161.191 50.0869 161.016 49.5508 161.016 48.9766H163.424C163.447 49.4277 163.614 49.7734 163.925 50.0137C164.235 50.2539 164.651 50.374 165.173 50.374C165.659 50.374 166.025 50.2832 166.271 50.1016C166.523 49.9141 166.649 49.6709 166.649 49.3721Z" fill="white"/>
</svg>
